# xmcd CD database file
#
# Track frame offsets:
#	183
#	13308
#	30133
#	43008
#	56108
#	68170
#	86283
#	99810
#	113535
#	125833
#	141083
#	154333
#	165933
#	178908
#
# Disc length: 2548 seconds
#
# Revision: 0
# Processed by: cddbd v1.5.1PL0 Copyright (c) Steve Scherf et al.
# Submitted via: CDex 1.51
#
DISCID=af09f20e
DTITLE=Frank Sinatra - Greatest Hits
DYEAR=1995
DGENRE=Jazz
TTITLE0=Witchcraft
TTITLE1=I've got you under my skin
TTITLE2=I get a Kick out of you
TTITLE3=all the way
TTITLE4=Love and Marriage
TTITLE5=Night and Day
TTITLE6=(Love is) the tender trap
TTITLE7=Learnin' the Blues
TTITLE8=How Little We Know
TTITLE9=Come Fly with me
TTITLE10=Yo make me feel so young
TTITLE11=What is thing called Love?
TTITLE12=Young at heart
TTITLE13=High Hopes
EXTD=YEAR: 1995
EXTT0=
EXTT1=
EXTT2=
EXTT3=
EXTT4=
EXTT5=
EXTT6=
EXTT7=
EXTT8=
EXTT9=
EXTT10=
EXTT11=
EXTT12=
EXTT13=
PLAYORDER=
